# xmcd
# 
# Track frame offsets:
#     150
#     17527
#     34577
#     52372
#     74060
#     95535
#     114397
#     135637
#     158910
#     178522
#     203465
#     221197
#     242705
# 
# Disc length: 3531
# 
# Revision: 2
# Processed by: cddbd v1.5.2PL0 Copyright (c) Steve Scherf et al.
# Submitted via: BonkEnc v1.0.15
# 
DISCID=ba0dc90d
DTITLE=Heesay With Dudes - Obstinute Rockaholic
DYEAR=2003
DGENRE=J-Rock
TTITLE0=Spilit Free
TTITLE1=Husky Street
TTITLE2=Old Child
TTITLE3=Nameless Lover
TTITLE4=ならず者アイムソーリー
TTITLE5=Beautiful Animals
TTITLE6=No Hearts
TTITLE7=Camden Town
TTITLE8=Lady Black Stockin'
TTITLE9=カリスマ (Strongman Is Cryin')
TTITLE10=ベイサイドメランコリー
TTITLE11=ケセラセラ
TTITLE12=Downtown Tokyo
EXTD=YEAR: 2003 ID3G: 78
EXTT0=
EXTT1=
EXTT2=
EXTT3=
EXTT4=
EXTT5=
EXTT6=
EXTT7=
EXTT8=
EXTT9=
EXTT10=
EXTT11=
EXTT12=
PLAYORDER=
